/* XPM */
static char *result[] = {
/* columns rows colors chars-per-pixel */
"32 32 9 1 ",
"  c #241616",
". c #362024",
"X c #5F3928",
"o c #6F4D2F",
"O c #7A6439",
"+ c #113461",
"@ c #265181",
"# c #2C6CB4",
"$ c #58B1C8",
/* pixels */
"oXoooOOOOOOOOoooOOOOOOOOOoOoOoX.",
"oXXOOoooOOoooooXXXXXXXXXXXXXXXX.",
"oX.                          .X.",
"oX.XXX XXX XXX XXX XXX XXX XoX$#",
"oX.XXX.XXX.XXX.XoX.XXX.Xoo.XoX#@",
"oX.oXX.ooXXooOXXooXooOXXooXXoX++",
"oX.oXX.XOXXoOOXoOoXoXoXoOoXXOX++",
"oX.oXX.XooXooX.oXo.XXX.ooX.XOX#@",
"OX.XXX.XXX.XXX.XXX.XXX.XXX.XOX@@",
"OX.ooooOOOOOOOooooOoOoooooooOXX.",
"OX.oooXXooooXXXoooooXXoXXXXXOXX.",
"OX.XXXXXXXXXXXXXXXXXXXooooXXOXX ",
"oX.oXX                     XOXX ",
"oX.oXX XXX.XXX.XXX.XXX.XXX.XOXX ",
"OX.oXX XXX.XXX.ooo.XXX.XXX.XOXX ",
"OX.XXX.OoXXoOo.oOoXoooXooX.XoXX ",
"OX.XXX.oooXooXXoOXXOOoXOoo.XoXX ",
"OX.XXX.oXX.XXX.XoX.oXXXoXX XOXX ",
"OX.XXX.XXX.XXX.XXX.XXX.XXX XOXX ",
"OX.o#$$$$OOOOOoOOOooOooooooooX$#",
"OX.X@$$#@ooooooXXooXXXXXXXXXoX#@",
"OX.X.@@@.oXXXXXXXXooooooXXXXOX++",
"OX.oX  ..XXXXXXXXXXXXXXXXXXXOX++",
"OX.XX                      XOX#@",
"OX.XXX XXX XXX XXX XXX ooX.XOX@@",
"OX.XoX.ooX.oXX.ooX.ooX.oOX.XOXX ",
"OX.XooXoOXXOooXOOX.oOXXooX.XoXX ",
"OX.XOoXXOoXoOoXooXXoOoXXoX.XoXX ",
"OX.XooXXoo.oOoXXooXXoo.XXX.XoXX ",
"OX.XoX.XoX.ooX.XXX.XXo.XXX XoXX.",
"oX.XXX.XXX.XXX.XXX.XXX XXX XoXX ",
"oX.XXX XXX XXX XXX XXX XXX XoXX."
};
