/* XPM */
static char * Door_closed_xpm[] = {
"32 31 34 1",
" 	c #DFAB38",
".	c #E7C535",
"+	c #E4DF72",
"@	c #77718E",
"#	c #CC9434",
"$	c #575369",
"%	c #423F4F",
"&	c #2D261D",
"*	c #70604A",
"=	c #7C6B54",
"-	c #5E4F3C",
";	c #72624D",
">	c #63594D",
",	c #746859",
"'	c #493C2D",
")	c #4E4131",
"!	c #958F87",
"~	c #AAA39C",
"{	c #ADA8A1",
"]	c #B0ACA6",
"^	c #AFAAA3",
"/	c #736D66",
"(	c #7D766F",
"_	c #857F78",
":	c #3C3124",
"<	c #75644F",
"[	c #B8B8B8",
"}	c #717171",
"|	c #767676",
"1	c #606060",
"2	c #494949",
"3	c #7E7E7E",
"4	c #615240",
"5	c #A69F97",
" .+..+ @@@@@@@@@@@@@@@@@@#######",
"+..  @@$$$$$$$$$$$$$$$$$$@@....+",
" ###@$$$$$$$$$$$$$$$$$$$$$$@... ",
"## @$$$$$$$$$$$$$$$$$$$$$$$$@###",
"..@$$$$%%%%%%%%%%%%%%%%%%$$$$@  ",
".@$$$$%%&&&&&&&&&&&&&&&&%%$$$$@.",
"@$$$$%%&&*=&-=&*;&>,&,,&&%%$$$$@",
"@$$$%%&'&'-&''&-'&'-&&-&*&%%$$$@",
"@$$$%&')&''&''&-'&'--&'&''&%$$$@",
"@$$$%&')&''&''&))&''&&'&)'&%$$$@",
"@$$$%!~{!!!!!!!]^!!!!!!!~~!%$$$@",
"@$$$%/(_///////((///////((/%$$$@",
"@$$$%&::&::&::&:&:::&::&::&%$$$@",
"@$$$%&-)&')&')&'&)')&')&')&%$$$@",
"@$$$%&-)&')&')&'&-')&-)&')&%$$$@",
"@$$$%&-)&'<&')&'&-')&-)&')&%$$$@",
"@$$$%&-)&-)&')&'&*-)&-)&-)&%$$$@",
"@$$$%&-)&-)&')&'&&-)&-[[[)&%$$$@",
"@$$$%&-)&-)&')&*-&-)&-}|})&%$$$@",
"@$$$%&-)&-)&')&--&-)&12221&%$$$@",
"@$$$%&-)&-'&''&'-&-'[)'&-)[%$$$@",
"@$$$%&-)&-'&''&'-&-'1)'&-'1%$$$@",
"@$$$%&-)&-'&&'&'-&-'&}333}&%$$$@",
"@$$$%&''&-4<&'&'-&-'&)222'&%$$$@",
"@$$$%&''&'')&'&''&-&&)'&''&%$$$@",
"@$$$%&''&')&''&''&)&))'&''&%$$$@",
"@$$$%!5{!!!!!!!5{!!!!!!!5{!%$$$@",
"@$$$%/((///////((///////((/%$$$@",
"@$$$%&::&::&::&::&::&::&::&%$$$@",
"@$$$%&''&&'&''&''&''&''&''&%$$$@",
"@$$$%&''4&'&4'&'-&''&''&''&%$$$@"};
