/* XPM */
static char * Collectible1_xpm[] = {
"32 32 28 1",
" 	c #DFAB38",
".	c #E7C535",
"+	c #E4DF72",
"@	c #CC9434",
"#	c #000000",
"$	c #FBDF5A",
"%	c #FDC200",
"&	c #5D2503",
"*	c #6A5039",
"=	c #FFFFFF",
"-	c #F4E69C",
";	c #ED9C22",
">	c #B12E18",
",	c #EA981B",
"'	c #690000",
")	c #FE3602",
"!	c #F36F1A",
"~	c #FFA12E",
"{	c #390000",
"]	c #C93010",
"^	c #8D0000",
"/	c #D58205",
"(	c #B16800",
"_	c #AB0F0F",
":	c #FEF089",
"<	c #FFFAA6",
"[	c #FFD13A",
"}	c #FDCB00",
" .+..+ @@@.....   .... @@@@@@@@@",
"+..  @ ...+...   .... @@@  ....+",
" @@@@ ..+.. @@+.... @@@ ....... ",
"@@ ..... @@@  ...##@@@.....  @@@",
"....  @@@@@ ... #$%&  .. @@@@@  ",
"... @@@@@ ......&$$%&#@@@ ......",
"@@@@@@ .....+++#%$$$$%&#......  ",
"@    ...    @@@&$$$$$$$$#@@@@@@@",
"....+.... @@@ #%**$$%%%%$# .....",
"+...   @@  ...#$**$%%%%%%&......",
" ..  @@@     #%=-;>>,,>>>''. @@@",
"... @@@    @@#$$$')!>>!~~!)#@@  ",
"  @@@@    @@@&%%%{)])!^^^]!#... ",
"@@@@@   #####/(%%/{)>^__])'.... ",
"@@@ .###%$$$$$%/%%/{^)]])'+. @@@",
"@ ..#$$$$$$$$$$:/;%%/{!~!' @@@@@",
"..+.#%$$$%%$$$$$<:$$$%'''@@@@@ .",
"+. @#/%$%$$$$$$%$$$$$$$$/#@@ .++",
" @@@@&%%/%[$::$$%$$$[%%%;#+++++.",
"@@@  #[%/$[%%%%%;$[%%%%%%/#.. @@",
" ....#/%%//$[%%;[%%%%%%%%;#@@@@ ",
".  @@@&[%%%///;%%%%%%%%%%;#@@ ..",
"@@@@@ #/[%%%%%%%%%%%%%%%%/#... @",
"  .....#/[%%%%%%%%%%%%%%}&@@@@@@",
"++...   #;$%%%%%%%%%%%%}/# ...++",
"   @@@@  #&[$[%%%%%%}}[/#.+++...",
"@@@@@      ##&$$$[[[[/&#..  @@@@",
"@@  ......@@@@########@@@@@@@@@@",
"..... @@@@@@...... @@@@@@@@@@@..",
"... @@@      .... @@@@@@@@@  ...",
"@@@@    ... @@   @@@@@     .... ",
"@@@ .... @@@ ...   ......    @@@"};
