/* XPM */
static char *result[] = {
/* columns rows colors chars-per-pixel */
"26 23 7 1 ",
"  c #2E222F",
". c #3E3546",
"X c #625565",
"o c #7F708A",
"O c #9BABB2",
"+ c #C7DCD0",
"@ c None",
/* pixels */
"                          ",
" XXXXXXXXXXXXXXXXXXXXXXXX ",
" XXXXXXXXX......XXXXXXXXX ",
" XXXXXXXXX......XXXXXXXXX ",
" XXXXXXXXX......XXXXXXXXX ",
" XXXXXXXXXXXXXXXXXXXXXXXX ",
" XXO.@@@@@@@@@@@@@@@@.OXX ",
" XXO.@@@@@@@@@@@@@@@@.OXX ",
" XX+o@@@@@@@@@@@@@@@@o+XX ",
" XX+o@@@@@@@@@@@@@@@@o+XX ",
" XX+o@@@@@@@@@@@@@@@@o+XX ",
" XX+o@@@@@@@@@@@@@@@@o+XX ",
" XX+o@@@@@@@@@@@@@@@@o+XX ",
" XX+o@@@@@@@@@@@@@@@@o+XX ",
" XX+o@@@@@@@@@@@@@@@@o+XX ",
" XX+o@@@@@@@@@@@@@@@@o+XX ",
" XX+o@@@@@@@@@@@@@@@@o+XX ",
" XX+o@@@@@@@@@@@@@@@@o+XX ",
" XX+o@@@@@@@@@@@@@@@@o+XX ",
" XX+o@@@@@@@@@@@@@@@@o+XX ",
" XX+o@@@@@@@@@@@@@@@@o+XX ",
" ..O.@@@@@@@@@@@@@@@@.O.. ",
" ..O.@@@@@@@@@@@@@@@@.O.. "
};
