/* XPM */
static char * Open_exit_xpm[] = {
"32 32 8 1",
" 	c #DFAB38",
".	c #E7C535",
"+	c #E4DF72",
"@	c #CC9434",
"#	c #77718E",
"$	c #575369",
"%	c #423F4F",
"&	c #000000",
" .+..+ @@@.....   .... @@@@@@@@@",
"+..  @ .################## ....+",
" @@@@ ##$$$$$$$$$$$$$$$$$$##... ",
"@@ ..#$$$$$$$$$$$$$$$$$$$$$$#@@@",
"....#$$$$$$$$$$$$$$$$$$$$$$$$#  ",
"...#$$$$%%%%%%%%%%%%%%%%%%$$$$#.",
"@@#$$$$%%&&&&&&&&&&&&&&&&%%$$$$#",
"@#$$$$%%&&&&&&&&&&&&&&&&&&%%$$$$",
".#$$$%%&&&&&&&&&&&&&&&&&&&&%%$$$",
"+#$$$%&&&&&&&&&&&&&&&&&&&&&&%$$$",
" #$$$%&&&&&&&&&&&&&&&&&&&&&&%$$$",
".#$$$%&&&&&&&&&&&&&&&&&&&&&&%$$$",
" #$$$%&&&&&&&&&&&&&&&&&&&&&&%$$$",
"@#$$$%&&&&&&&&&&&&&&&&&&&&&&%$$$",
"@#$$$%&&&&&&&&&&&&&&&&&&&&&&%$$$",
"@#$$$%&&&&&&&&&&&&&&&&&&&&&&%$$$",
".#$$$%&&&&&&&&&&&&&&&&&&&&&&%$$$",
"+#$$$%&&&&&&&&&&&&&&&&&&&&&&%$$$",
" #$$$%&&&&&&&&&&&&&&&&&&&&&&%$$$",
"@#$$$%&&&&&&&&&&&&&&&&&&&&&&%$$$",
" #$$$%&&&&&&&&&&&&&&&&&&&&&&%$$$",
".#$$$%&&&&&&&&&&&&&&&&&&&&&&%$$$",
"@#$$$%&&&&&&&&&&&&&&&&&&&&&&%$$$",
" #$$$%&&&&&&&&&&&&&&&&&&&&&&%$$$",
"+#$$$%&&&&&&&&&&&&&&&&&&&&&&%$$$",
" #$$$%&&&&&&&&&&&&&&&&&&&&&&%$$$",
"@#$$$%&&&&&&&&&&&&&&&&&&&&&&%$$$",
"@#$$$%&&&&&&&&&&&&&&&&&&&&&&%$$$",
".#$$$%&&&&&&&&&&&&&&&&&&&&&&%$$$",
".#$$$%&&&&&&&&&&&&&&&&&&&&&&%$$$",
"@#$$$%&&&&&&&&&&&&&&&&&&&&&&%$$$",
"@#$$$%&&&&&&&&&&&&&&&&&&&&&&%$$$"};
