/* XPM */
static char * PlayerLeft_xpm[] = {
"32 32 11 1",
" 	c #DFAB38",
".	c #E7C535",
"+	c #E4DF72",
"@	c #CC9434",
"#	c #04193F",
"$	c #0696DB",
"%	c #0FEFFB",
"&	c #03396B",
"*	c #FCFEFE",
"=	c #C3242F",
"-	c #E7333B",
" .+..+ @@@.....   .... @@@@@@@@@",
"+..  @ ...+...   .... @@@  ....+",
" @@@@ ..+.. @@+.... @@@ ....... ",
"@@ ..... @@@  ... @@@@.....  @@@",
"....  @@@@@ ... @@@   .. @@@@@  ",
"... @@@@@ ..........  @@@ ......",
"@@@@@@ .....++#####@@@ .......  ",
"@    ...    ##$$%%%##... @@@@@@@",
"....+.... @#&&$%%%%%%# @@@ .....",
"+...   @@ #&&##%%%%%%%# ........",
" ..  @@@ #&&&##%%%%%%%%#+... @@@",
"... @@@  ##&&$$%%###%%%# @@@@@  ",
"  @@@@  #*##$$$%#**##%%%#@@ ... ",
"@@@@@   #*##$$$%#**##%%%# ..... ",
"@@@ ....####$$$%#####%%%#.+. @@@",
"@ ..+..@###&$$$$%###%%%%#. @@@@@",
"..+.  @@#&&&$$$$%%%%%%%%#@@@@@ .",
"+. @@@@..#&&&$$$$%%%%%%#@@@@ .++",
" @@@@@   #&&&##$$$$%%%%# .+++++.",
"@@@  ....@#&&$$$$$$$$$#...... @@",
" ....+..  #&&&$$$$$$==#   @@@@@ ",
".  @@@ ...#=&&&&&===--#.@@@@@ ..",
"@@@@@ ..  #-=====----#&#@@ ... @",
"  .....  @#--------##&$#@@@@@@@@",
"++...    #&#------#&$$$$#  ...++",
"   @@@@  #&&----##&&$$$$#.+++...",
"@@@@@    #&&#-##&&$$&$$$#.  @@@@",
"@@  ......##&#&&$$$$$&&#@@@@@@@@",
"..... @@@@@#&&&&&$$$$$#@@@@@@@..",
"... @@@    #&&&&##$$$$#@@@@  ...",
"@@@@    ... #&&&##$$$$#    .... ",
"@@@ .... @@@#&&&# #$$$#..    @@@"};
